name rise49.8558peak67.6521fall70.3087.mot
datacolumns 19
datarows 36
range 15.27994800000000 15.33827800000000
endheader
time	ground_force1_vx	ground_force1_vy	ground_force1_vz	ground_force1_px	ground_force1_py	ground_force1_pz	ground_force2_vx	ground_force2_vy	ground_force2_vz	ground_force2_px	ground_force2_py	ground_force2_pz	ground_torque1_x	ground_torque1_y	ground_torque1_z	ground_torque2_x	ground_torque2_y	ground_torque2_z	
15.27994800000000	64.91710300000000	730.52241200000003	59.20832400000000	0.42735000000000	0.00000000000000	0.12542400000000	-0.24001900000000	6.70676800000000	0.41231400000000	0.00000000000000	0.00000000000000	0.00000000000000	0.00000000000000	33.08212200000000	0.00000000000000	0.00000000000000	0.09296000000000	0.00000000000000	
15.28161000000000	64.50375800000000	734.02212899999995	59.49753100000000	0.42600900000000	0.00000000000000	0.12544500000000	0.05252800000000	3.30544600000000	0.25623900000000	0.00000000000000	0.00000000000000	0.00000000000000	0.00000000000000	33.25241700000000	0.00000000000000	0.00000000000000	0.08091300000000	0.00000000000000	
15.28327800000000	64.09038800000000	737.44663700000001	59.79146600000000	0.42468900000000	0.00000000000000	0.12546500000000	0.00000000000000	0.00000000000000	0.00000000000000	0.00000000000000	0.00000000000000	0.00000000000000	0.00000000000000	33.42749200000000	0.00000000000000	0.00000000000000	0.00000000000000	0.00000000000000	
15.28493900000000	63.67718800000000	740.79275600000005	60.08947800000000	0.42339100000000	0.00000000000000	0.12548700000000	0.00000000000000	0.00000000000000	0.00000000000000	0.00000000000000	0.00000000000000	0.00000000000000	0.00000000000000	33.60691800000000	0.00000000000000	0.00000000000000	0.00000000000000	0.00000000000000	
15.28661100000000	63.26428800000000	744.05726600000003	60.39083100000000	0.42211500000000	0.00000000000000	0.12550800000000	0.00000000000000	0.00000000000000	0.00000000000000	0.00000000000000	0.00000000000000	0.00000000000000	0.00000000000000	33.79020600000000	0.00000000000000	0.00000000000000	0.00000000000000	0.00000000000000	
15.28827700000000	62.85176100000000	747.23692000000005	60.69470900000000	0.42086200000000	0.00000000000000	0.12553000000000	0.00000000000000	0.00000000000000	0.00000000000000	0.00000000000000	0.00000000000000	0.00000000000000	0.00000000000000	33.97680800000000	0.00000000000000	0.00000000000000	0.00000000000000	0.00000000000000	
15.28994500000000	62.43962300000000	750.32846199999994	61.00022000000000	0.41963400000000	0.00000000000000	0.12555200000000	0.00000000000000	0.00000000000000	0.00000000000000	0.00000000000000	0.00000000000000	0.00000000000000	0.00000000000000	34.16612200000000	0.00000000000000	0.00000000000000	0.00000000000000	0.00000000000000	
15.29161000000000	62.02783700000000	753.32864400000005	61.30641000000000	0.41842900000000	0.00000000000000	0.12557300000000	0.00000000000000	0.00000000000000	0.00000000000000	0.00000000000000	0.00000000000000	0.00000000000000	0.00000000000000	34.35750000000000	0.00000000000000	0.00000000000000	0.00000000000000	0.00000000000000	
15.29327900000000	61.61631900000000	756.23424299999999	61.61226200000000	0.41724900000000	0.00000000000000	0.12559500000000	0.00000000000000	0.00000000000000	0.00000000000000	0.00000000000000	0.00000000000000	0.00000000000000	0.00000000000000	34.55025000000000	0.00000000000000	0.00000000000000	0.00000000000000	0.00000000000000	
15.29495500000000	61.20493800000000	759.04207699999995	61.91671000000000	0.41609400000000	0.00000000000000	0.12561600000000	0.00000000000000	0.00000000000000	0.00000000000000	0.00000000000000	0.00000000000000	0.00000000000000	0.00000000000000	34.74364300000000	0.00000000000000	0.00000000000000	0.00000000000000	0.00000000000000	
15.29660600000000	60.79352100000000	761.74902199999997	62.21864000000000	0.41496400000000	0.00000000000000	0.12563600000000	0.00000000000000	0.00000000000000	0.00000000000000	0.00000000000000	0.00000000000000	0.00000000000000	0.00000000000000	34.93691600000000	0.00000000000000	0.00000000000000	0.00000000000000	0.00000000000000	
15.29827400000000	60.38185900000000	764.35203200000001	62.51690700000000	0.41385900000000	0.00000000000000	0.12565600000000	0.00000000000000	0.00000000000000	0.00000000000000	0.00000000000000	0.00000000000000	0.00000000000000	0.00000000000000	35.12928000000000	0.00000000000000	0.00000000000000	0.00000000000000	0.00000000000000	
15.29994500000000	59.96970800000000	766.84814900000003	62.81033200000000	0.41277900000000	0.00000000000000	0.12567400000000	0.00000000000000	0.00000000000000	0.00000000000000	0.00000000000000	0.00000000000000	0.00000000000000	0.00000000000000	35.31992400000000	0.00000000000000	0.00000000000000	0.00000000000000	0.00000000000000	
15.30161400000000	59.55679600000000	769.23452499999996	63.09772000000000	0.41172400000000	0.00000000000000	0.12569200000000	0.00000000000000	0.00000000000000	0.00000000000000	0.00000000000000	0.00000000000000	0.00000000000000	0.00000000000000	35.50802200000000	0.00000000000000	0.00000000000000	0.00000000000000	0.00000000000000	
15.30327800000000	59.14282200000000	771.50843499999996	63.37786200000000	0.41069300000000	0.00000000000000	0.12570800000000	0.00000000000000	0.00000000000000	0.00000000000000	0.00000000000000	0.00000000000000	0.00000000000000	0.00000000000000	35.69273600000000	0.00000000000000	0.00000000000000	0.00000000000000	0.00000000000000	
15.30493800000000	58.72746700000000	773.66728999999998	63.64954400000000	0.40968500000000	0.00000000000000	0.12572400000000	0.00000000000000	0.00000000000000	0.00000000000000	0.00000000000000	0.00000000000000	0.00000000000000	0.00000000000000	35.87322300000000	0.00000000000000	0.00000000000000	0.00000000000000	0.00000000000000	
15.30661300000000	58.31039100000000	775.70865600000002	63.91155700000000	0.40870200000000	0.00000000000000	0.12573700000000	0.00000000000000	0.00000000000000	0.00000000000000	0.00000000000000	0.00000000000000	0.00000000000000	0.00000000000000	36.04863900000000	0.00000000000000	0.00000000000000	0.00000000000000	0.00000000000000	
15.30827400000000	57.89124300000000	777.63026400000001	64.16270200000000	0.40774100000000	0.00000000000000	0.12575000000000	0.00000000000000	0.00000000000000	0.00000000000000	0.00000000000000	0.00000000000000	0.00000000000000	0.00000000000000	36.21814700000000	0.00000000000000	0.00000000000000	0.00000000000000	0.00000000000000	
15.30994300000000	57.46966100000000	779.43002500000000	64.40180200000000	0.40680200000000	0.00000000000000	0.12576000000000	0.00000000000000	0.00000000000000	0.00000000000000	0.00000000000000	0.00000000000000	0.00000000000000	0.00000000000000	36.38091800000000	0.00000000000000	0.00000000000000	0.00000000000000	0.00000000000000	
15.31161900000000	57.04527700000000	781.10604000000001	64.62770200000000	0.40588500000000	0.00000000000000	0.12576900000000	0.00000000000000	0.00000000000000	0.00000000000000	0.00000000000000	0.00000000000000	0.00000000000000	0.00000000000000	36.53614100000000	0.00000000000000	0.00000000000000	0.00000000000000	0.00000000000000	
15.31327400000000	56.61772000000000	782.65661499999999	64.83928400000001	0.40498900000000	0.00000000000000	0.12577600000000	0.00000000000000	0.00000000000000	0.00000000000000	0.00000000000000	0.00000000000000	0.00000000000000	0.00000000000000	36.68302100000000	0.00000000000000	0.00000000000000	0.00000000000000	0.00000000000000	
15.31494200000000	56.18662200000000	784.08026900000004	65.03547000000000	0.40411200000000	0.00000000000000	0.12578000000000	0.00000000000000	0.00000000000000	0.00000000000000	0.00000000000000	0.00000000000000	0.00000000000000	0.00000000000000	36.82079200000000	0.00000000000000	0.00000000000000	0.00000000000000	0.00000000000000	
15.31660600000000	55.75161800000000	785.37574099999995	65.21522700000000	0.40325400000000	0.00000000000000	0.12578300000000	0.00000000000000	0.00000000000000	0.00000000000000	0.00000000000000	0.00000000000000	0.00000000000000	0.00000000000000	36.94871200000000	0.00000000000000	0.00000000000000	0.00000000000000	0.00000000000000	
15.31827900000000	55.31235100000000	786.54200400000002	65.37757800000000	0.40241400000000	0.00000000000000	0.12578400000000	0.00000000000000	0.00000000000000	0.00000000000000	0.00000000000000	0.00000000000000	0.00000000000000	0.00000000000000	37.06607600000000	0.00000000000000	0.00000000000000	0.00000000000000	0.00000000000000	
15.31994200000000	54.86847800000000	787.57826999999997	65.52160100000000	0.40159000000000	0.00000000000000	0.12578200000000	0.00000000000000	0.00000000000000	0.00000000000000	0.00000000000000	0.00000000000000	0.00000000000000	0.00000000000000	37.17221400000000	0.00000000000000	0.00000000000000	0.00000000000000	0.00000000000000	
15.32160500000000	54.41966600000000	788.48399500000005	65.64644199999999	0.40078100000000	0.00000000000000	0.12577800000000	0.00000000000000	0.00000000000000	0.00000000000000	0.00000000000000	0.00000000000000	0.00000000000000	0.00000000000000	37.26649700000000	0.00000000000000	0.00000000000000	0.00000000000000	0.00000000000000	
15.32328000000000	53.96560200000000	789.25888699999996	65.75131100000000	0.39998700000000	0.00000000000000	0.12577100000000	0.00000000000000	0.00000000000000	0.00000000000000	0.00000000000000	0.00000000000000	0.00000000000000	0.00000000000000	37.34833900000000	0.00000000000000	0.00000000000000	0.00000000000000	0.00000000000000	
15.32494700000000	53.50599000000000	789.90290700000003	65.83549499999999	0.39920600000000	0.00000000000000	0.12576300000000	0.00000000000000	0.00000000000000	0.00000000000000	0.00000000000000	0.00000000000000	0.00000000000000	0.00000000000000	37.41720100000000	0.00000000000000	0.00000000000000	0.00000000000000	0.00000000000000	
15.32661300000000	53.04055900000000	790.41627500000004	65.89835500000000	0.39843600000000	0.00000000000000	0.12575200000000	0.00000000000000	0.00000000000000	0.00000000000000	0.00000000000000	0.00000000000000	0.00000000000000	0.00000000000000	37.47259400000000	0.00000000000000	0.00000000000000	0.00000000000000	0.00000000000000	
15.32827100000000	52.56905800000000	790.79947400000003	65.93933199999999	0.39767600000000	0.00000000000000	0.12573800000000	0.00000000000000	0.00000000000000	0.00000000000000	0.00000000000000	0.00000000000000	0.00000000000000	0.00000000000000	37.51408100000000	0.00000000000000	0.00000000000000	0.00000000000000	0.00000000000000	
15.32993800000000	52.09126500000000	791.05324499999995	65.95795200000001	0.39692500000000	0.00000000000000	0.12572200000000	0.00000000000000	0.00000000000000	0.00000000000000	0.00000000000000	0.00000000000000	0.00000000000000	0.00000000000000	37.54127900000000	0.00000000000000	0.00000000000000	0.00000000000000	0.00000000000000	
15.33161300000000	51.60698400000000	791.17859299999998	65.95382200000000	0.39618200000000	0.00000000000000	0.12570300000000	0.00000000000000	0.00000000000000	0.00000000000000	0.00000000000000	0.00000000000000	0.00000000000000	0.00000000000000	37.55385800000000	0.00000000000000	0.00000000000000	0.00000000000000	0.00000000000000	
15.33327600000000	51.11604900000000	791.17678100000001	65.92663899999999	0.39544400000000	0.00000000000000	0.12568200000000	0.00000000000000	0.00000000000000	0.00000000000000	0.00000000000000	0.00000000000000	0.00000000000000	0.00000000000000	37.55155000000000	0.00000000000000	0.00000000000000	0.00000000000000	0.00000000000000	
15.33494400000000	50.61832200000000	791.04933500000004	65.87618399999999	0.39471100000000	0.00000000000000	0.12565800000000	0.00000000000000	0.00000000000000	0.00000000000000	0.00000000000000	0.00000000000000	0.00000000000000	0.00000000000000	37.53413900000000	0.00000000000000	0.00000000000000	0.00000000000000	0.00000000000000	
15.33661000000000	50.11370000000000	790.79803300000003	65.80232700000001	0.39398000000000	0.00000000000000	0.12563200000000	0.00000000000000	0.00000000000000	0.00000000000000	0.00000000000000	0.00000000000000	0.00000000000000	0.00000000000000	37.50147300000000	0.00000000000000	0.00000000000000	0.00000000000000	0.00000000000000	
15.33827800000000	49.60210900000000	790.42490399999997	65.70502700000000	0.39325100000000	0.00000000000000	0.12560400000000	0.00000000000000	0.00000000000000	0.00000000000000	0.00000000000000	0.00000000000000	0.00000000000000	0.00000000000000	37.45345500000000	0.00000000000000	0.00000000000000	0.00000000000000	0.00000000000000	
